<svg xmlns="http://www.w3.org/2000/svg" xmlns:xlink="http://www.w3.org/1999/xlink" width="64" zoomAndPan="magnify" viewBox="0 0 48 48" height="64" preserveAspectRatio="xMidYMid meet" version="1.0"><defs><clipPath id="d07db6ed01"><path d="M 18 38 L 19 38 L 19 38.882812 L 18 38.882812 Z M 18 38 " clip-rule="nonzero"/></clipPath><clipPath id="a64fa1d251"><path d="M 0.488281 26 L 6 26 L 6 31 L 0.488281 31 Z M 0.488281 26 " clip-rule="nonzero"/></clipPath><clipPath id="749e7f01a5"><path d="M 5 8.109375 L 47.507812 8.109375 L 47.507812 38.882812 L 5 38.882812 Z M 5 8.109375 " clip-rule="nonzero"/></clipPath></defs><path fill="#000000" d="M 5.007812 29.816406 C 5.117188 29.808594 5.144531 29.886719 5.226562 29.902344 C 5.191406 30.003906 4.957031 29.949219 5.007812 29.816406 " fill-opacity="1" fill-rule="evenodd"/><path fill="#000000" d="M 9.355469 32.070312 C 9.800781 31.871094 10.316406 32.242188 10.746094 32.332031 C 11.148438 32.410156 11.769531 32.300781 12.050781 32.675781 C 11.144531 32.539062 10.222656 32.367188 9.355469 32.070312 C 9.761719 31.886719 10.121094 32.335938 9.355469 32.070312 " fill-opacity="1" fill-rule="evenodd"/><g clip-path="url(#d07db6ed01)"><path fill="#000000" d="M 18.308594 38.261719 C 18.3125 38.085938 18.542969 38.300781 18.65625 38.175781 C 18.605469 38.34375 18.46875 38.292969 18.308594 38.261719 " fill-opacity="1" fill-rule="evenodd"/></g><path fill="#000000" d="M 18.742188 31.855469 C 18.824219 31.667969 18.960938 31.773438 19.175781 31.765625 C 19.097656 31.863281 18.917969 31.859375 18.742188 31.855469 " fill-opacity="1" fill-rule="evenodd"/><path fill="#000000" d="M 22.742188 28.777344 C 22.972656 28.773438 22.949219 28.503906 23.132812 28.429688 C 23.136719 28.777344 22.742188 28.96875 22.664062 29.289062 C 22.621094 29.472656 22.34375 30.046875 22.089844 30.078125 C 22.269531 29.75 22.738281 29.125 22.742188 28.777344 C 22.984375 28.773438 22.738281 28.871094 22.742188 28.777344 " fill-opacity="1" fill-rule="evenodd"/><path fill="#000000" d="M 22.609375 26.394531 C 22.507812 26.34375 22.570312 26.101562 22.652344 26.09375 C 22.777344 26.164062 22.632812 26.328125 22.609375 26.394531 " fill-opacity="1" fill-rule="evenodd"/><path fill="#000000" d="M 22.742188 30.855469 C 22.773438 30.765625 22.917969 30.6875 23 30.769531 C 22.960938 30.847656 22.867188 30.867188 22.742188 30.855469 " fill-opacity="1" fill-rule="evenodd"/><path fill="#000000" d="M 29.996094 28.648438 C 27.660156 29.285156 25.371094 30.046875 22.957031 30.335938 C 24.15625 30.074219 25.34375 29.765625 26.527344 29.441406 C 27.058594 29.296875 27.589844 29.105469 28.109375 28.964844 C 28.261719 28.925781 28.328125 28.746094 28.480469 28.878906 C 28.710938 29.078125 28.628906 28.824219 28.652344 28.820312 C 30.304688 28.25 31.992188 27.691406 33.472656 26.742188 C 33.503906 27.34375 32.007812 27.75 31.566406 27.972656 C 31.417969 28.046875 31.269531 28.128906 31.121094 28.214844 C 30.925781 28.332031 30.8125 28.265625 30.652344 28.371094 C 30.539062 28.445312 30.449219 28.53125 30.300781 28.476562 C 30.167969 28.59375 30.128906 28.753906 29.910156 28.734375 C 29.941406 28.707031 29.96875 28.675781 29.996094 28.648438 C 27.929688 29.210938 29.949219 28.65625 29.996094 28.648438 " fill-opacity="1" fill-rule="evenodd"/><path fill="#000000" d="M 23 32.375 C 23.046875 32.285156 23.234375 32.425781 23.390625 32.375 C 23.378906 32.625 23.109375 32.40625 23 32.375 " fill-opacity="1" fill-rule="evenodd"/><path fill="#000000" d="M 23.175781 30.769531 C 23.222656 30.660156 23.367188 30.644531 23.523438 30.640625 C 23.523438 30.800781 23.328125 30.765625 23.175781 30.769531 " fill-opacity="1" fill-rule="evenodd"/><path fill="#000000" d="M 24.261719 35.402344 C 24.28125 35.191406 24.457031 35.429688 24.566406 35.402344 C 24.5 35.535156 24.375 35.371094 24.261719 35.402344 " fill-opacity="1" fill-rule="evenodd"/><path fill="#000000" d="M 24.476562 30.511719 C 24.480469 30.339844 24.714844 30.398438 24.828125 30.335938 C 24.804688 30.488281 24.59375 30.453125 24.476562 30.511719 " fill-opacity="1" fill-rule="evenodd"/><path fill="#000000" d="M 25.171875 28.648438 C 25.171875 28.414062 25.859375 27.613281 26.175781 27.652344 C 25.832031 27.976562 25.59375 28.410156 25.171875 28.648438 C 25.171875 28.546875 25.597656 28.410156 25.171875 28.648438 " fill-opacity="1" fill-rule="evenodd"/><path fill="#000000" d="M 27.085938 25.445312 C 27.117188 25.273438 27.230469 25.183594 27.300781 25.054688 C 27.394531 25.175781 27.285156 25.46875 27.085938 25.445312 " fill-opacity="1" fill-rule="evenodd"/><path fill="#000000" d="M 30.953125 24.792969 C 31.0625 24.640625 31.0625 24.382812 31.300781 24.359375 C 31.160156 24.480469 31.15625 24.734375 30.953125 24.792969 " fill-opacity="1" fill-rule="evenodd"/><path fill="#000000" d="M 31.300781 23.796875 L 31.515625 23.796875 C 31.5 23.761719 31.472656 23.75 31.429688 23.753906 C 31.773438 22.777344 32.382812 21.785156 33.003906 20.992188 C 33.128906 20.832031 33.230469 20.65625 33.304688 20.46875 C 33.417969 20.199219 33.574219 20.195312 33.738281 19.960938 C 33.96875 19.632812 34.078125 19.175781 34.429688 18.945312 C 34.175781 19.511719 33.855469 20.050781 33.503906 20.566406 C 33.3125 20.84375 33.109375 21.113281 32.90625 21.378906 C 32.710938 21.632812 32.683594 21.84375 32.539062 22.074219 C 32.296875 22.457031 32.109375 22.871094 31.867188 23.253906 C 31.789062 23.378906 31.695312 23.546875 31.5625 23.625 C 31.636719 23.875 31.425781 24.121094 31.257812 24.273438 C 31.167969 24.066406 31.378906 23.984375 31.300781 23.796875 C 31.375 23.796875 31.394531 24.019531 31.300781 23.796875 " fill-opacity="1" fill-rule="evenodd"/><path fill="#000000" d="M 31.429688 27.394531 C 31.386719 27.230469 31.578125 27.308594 31.605469 27.21875 C 31.730469 27.289062 31.523438 27.394531 31.429688 27.394531 " fill-opacity="1" fill-rule="evenodd"/><path fill="#000000" d="M 31.953125 27.132812 C 31.898438 26.949219 32.09375 27.015625 32.125 26.917969 C 32.246094 26.992188 32.097656 27.171875 31.953125 27.132812 " fill-opacity="1" fill-rule="evenodd"/><path fill="#000000" d="M 32.214844 27 C 32.425781 26.777344 32.707031 26.628906 33.039062 26.523438 C 32.828125 26.746094 32.527344 26.882812 32.214844 27 " fill-opacity="1" fill-rule="evenodd"/><path fill="#000000" d="M 33.34375 17.515625 C 33.652344 17.515625 33.910156 17.015625 34.171875 16.820312 C 34.355469 16.6875 34.558594 16.570312 34.777344 16.519531 C 34.914062 16.347656 35.082031 16.207031 35.261719 16.082031 C 35.632812 15.828125 36.042969 15.640625 36.402344 15.378906 C 36.566406 15.257812 36.96875 14.867188 37.210938 15.003906 C 36.511719 15.710938 35.597656 16.144531 34.78125 16.695312 C 34.527344 16.867188 33.003906 18.261719 33.039062 18.296875 C 33.074219 18.015625 33.289062 17.796875 33.34375 17.515625 C 33.402344 17.515625 33.28125 17.84375 33.34375 17.515625 " fill-opacity="1" fill-rule="evenodd"/><path fill="#000000" d="M 33.953125 23.40625 C 34.167969 23.328125 34.261719 23.539062 34.472656 23.449219 C 34.328125 23.589844 34.105469 23.585938 33.953125 23.710938 C 33.867188 23.628906 33.976562 23.507812 33.953125 23.40625 C 34.253906 23.296875 33.988281 23.5625 33.953125 23.40625 " fill-opacity="1" fill-rule="evenodd"/><path fill="#000000" d="M 34.253906 21.457031 C 34.183594 21.433594 34.113281 21.417969 34.039062 21.414062 C 34.195312 21.058594 34.382812 20.71875 34.5625 20.375 C 34.875 20.683594 34.339844 21.160156 34.253906 21.457031 C 34.152344 21.476562 34.347656 21.136719 34.253906 21.457031 " fill-opacity="1" fill-rule="evenodd"/><path fill="#000000" d="M 34.777344 19.59375 C 35.21875 19.417969 35.050781 18.742188 35.253906 18.46875 C 35.496094 18.691406 35.144531 19.101562 35.210938 19.378906 C 35.03125 19.214844 35.046875 19.71875 35.023438 19.796875 C 34.945312 20.023438 34.800781 20.210938 34.691406 20.417969 C 34.433594 20.164062 35 19.828125 34.777344 19.59375 C 35.003906 19.503906 34.972656 19.800781 34.777344 19.59375 " fill-opacity="1" fill-rule="evenodd"/><path fill="#000000" d="M 35.429688 27.046875 C 35.550781 27.046875 35.339844 27.132812 35.691406 27.132812 C 35.628906 27.277344 35.398438 27.210938 35.429688 27.046875 C 35.472656 27.046875 35.390625 27.246094 35.429688 27.046875 " fill-opacity="1" fill-rule="evenodd"/><path fill="#000000" d="M 35.777344 27.132812 C 35.8125 27.035156 36.003906 26.972656 36.082031 27.046875 C 36.074219 27.167969 35.898438 27.125 35.777344 27.132812 " fill-opacity="1" fill-rule="evenodd"/><path fill="#000000" d="M 37.125 17.257812 C 37.152344 17.558594 37.035156 17.871094 36.9375 18.148438 C 36.875 18.316406 36.816406 18.484375 36.765625 18.652344 C 36.625 19.089844 36.765625 18.832031 36.515625 18.859375 C 36.644531 18.296875 36.929688 17.796875 37.125 17.257812 C 37.164062 17.703125 36.925781 17.796875 37.125 17.257812 " fill-opacity="1" fill-rule="evenodd"/><path fill="#000000" d="M 36.734375 29.210938 C 36.738281 29.113281 36.84375 29.117188 36.949219 29.125 C 36.960938 29.253906 36.796875 29.277344 36.734375 29.210938 " fill-opacity="1" fill-rule="evenodd"/><path fill="#000000" d="M 38.382812 24.707031 C 38.46875 24.605469 38.625 24.578125 38.863281 24.535156 C 38.820312 24.710938 38.609375 24.714844 38.382812 24.707031 " fill-opacity="1" fill-rule="evenodd"/><path fill="#000000" d="M 39.515625 22.109375 C 39.605469 21.890625 39.824219 22.160156 39.949219 22.152344 C 39.886719 22.238281 39.796875 22.28125 39.6875 22.28125 C 39.71875 22.140625 39.652344 22.078125 39.515625 22.109375 C 39.570312 21.972656 39.664062 22.074219 39.515625 22.109375 " fill-opacity="1" fill-rule="evenodd"/><path fill="#000000" d="M 40.125 12.535156 C 40.125 12.351562 40.242188 12.277344 40.382812 12.230469 C 40.324219 12.363281 40.296875 12.523438 40.125 12.535156 " fill-opacity="1" fill-rule="evenodd"/><path fill="#000000" d="M 40.6875 21.242188 C 40.734375 21.082031 40.921875 21.125 41.042969 21.117188 C 41.273438 21.101562 41.144531 20.804688 41.425781 20.851562 C 41.277344 21.261719 41.039062 21.199219 40.6875 21.242188 C 40.777344 20.957031 40.769531 21.230469 40.6875 21.242188 " fill-opacity="1" fill-rule="evenodd"/><path fill="#000000" d="M 41.210938 18.816406 C 41.730469 18.738281 42.128906 18.347656 42.6875 18.425781 C 42.386719 18.648438 42.03125 18.851562 41.644531 18.816406 C 41.597656 18.886719 41.535156 18.941406 41.457031 18.980469 C 41.117188 19.097656 41.433594 18.847656 41.210938 18.816406 C 41.699219 18.742188 41.285156 18.828125 41.210938 18.816406 " fill-opacity="1" fill-rule="evenodd"/><path fill="#000000" d="M 41.773438 17.605469 C 41.984375 17.324219 42.390625 17.273438 42.6875 17.0625 C 43.0625 16.800781 43.386719 16.433594 43.816406 16.261719 C 43.625 16.671875 43.074219 16.742188 42.902344 17.171875 C 42.464844 17.179688 42.214844 17.601562 41.773438 17.605469 C 41.820312 17.546875 42.292969 17.601562 41.773438 17.605469 " fill-opacity="1" fill-rule="evenodd"/><path fill="#000000" d="M 44.511719 17.386719 C 44.328125 17.351562 43.878906 17.59375 43.832031 17.671875 C 43.636719 18 43.167969 18.320312 42.773438 18.296875 C 42.789062 18.160156 42.867188 18.0625 43.003906 18.039062 C 43.257812 17.996094 43.289062 17.855469 43.496094 17.691406 C 43.914062 17.363281 44.324219 17.117188 44.703125 16.734375 C 45.074219 16.371094 45.433594 16 45.816406 15.648438 C 46.011719 15.472656 46.214844 15.296875 46.425781 15.132812 C 46.46875 14.859375 46.5625 14.554688 46.816406 14.398438 C 46.460938 15.710938 45.214844 16.3125 44.511719 17.386719 C 44.226562 17.332031 45.144531 16.421875 44.511719 17.386719 " fill-opacity="1" fill-rule="evenodd"/><path fill="#000000" d="M 44.164062 16 C 44.109375 15.828125 44.289062 15.894531 44.296875 15.785156 C 44.410156 15.847656 44.277344 16.019531 44.164062 16 " fill-opacity="1" fill-rule="evenodd"/><path fill="#000000" d="M 44.425781 15.742188 C 44.488281 15.628906 44.527344 15.496094 44.6875 15.480469 C 44.652344 15.621094 44.566406 15.707031 44.425781 15.742188 " fill-opacity="1" fill-rule="evenodd"/><path fill="#000000" d="M 45.035156 23.148438 C 44.90625 23.015625 45.171875 22.914062 45.292969 22.886719 C 45.285156 23.050781 45.070312 23.011719 45.035156 23.148438 " fill-opacity="1" fill-rule="evenodd"/><path fill="#000000" d="M 45.121094 23.582031 C 45.113281 23.457031 45.296875 23.449219 45.335938 23.492188 C 45.332031 23.589844 45.230469 23.585938 45.121094 23.582031 " fill-opacity="1" fill-rule="evenodd"/><g clip-path="url(#a64fa1d251)"><path fill="#000000" d="M 2.183594 28.605469 C 2.5625 28.714844 2.761719 29.101562 3.140625 29.210938 C 2.933594 29.15625 3.097656 28.792969 2.792969 28.863281 C 2.828125 28.773438 2.886719 28.757812 2.964844 28.820312 C 2.613281 28.3125 2.132812 27.917969 1.664062 27.523438 C 1.664062 27.097656 1.851562 27.375 2.070312 27.503906 C 2.292969 27.640625 2.539062 27.734375 2.757812 27.882812 C 3.140625 28.148438 3.558594 28.308594 3.964844 28.582031 C 4.191406 28.734375 4.429688 28.902344 4.703125 28.953125 C 4.796875 29.203125 4.988281 29.273438 5.226562 29.339844 C 5.226562 29.566406 3.75 28.734375 3.878906 28.605469 C 3.789062 28.589844 3.238281 28.574219 3.402344 28.300781 C 3.324219 28.308594 3.292969 28.351562 3.316406 28.429688 C 3.222656 28.328125 3.007812 28.363281 3.007812 28.171875 C 2.871094 28.332031 2.859375 28.117188 2.707031 28.257812 C 2.878906 28.222656 4.070312 29.339844 4.007812 29.472656 C 4.214844 29.425781 4.472656 29.574219 4.53125 29.773438 C 4.316406 29.808594 4.199219 29.707031 4.007812 29.644531 C 4.25 30.109375 5.007812 30.550781 5.445312 30.769531 C 5.492188 30.515625 4.972656 30.457031 4.921875 30.207031 C 5.003906 30.203125 5.265625 30.480469 5.300781 30.414062 C 5.382812 30.261719 5.707031 30.574219 5.878906 30.640625 C 5.820312 30.71875 5.777344 30.808594 5.746094 30.898438 C 5.703125 30.851562 5.652344 30.828125 5.589844 30.824219 C 5.585938 30.863281 5.578125 30.90625 5.574219 30.945312 C 5.414062 30.925781 5.257812 30.886719 5.105469 30.835938 C 4.835938 30.742188 4.585938 30.597656 4.351562 30.4375 C 4.121094 30.285156 3.902344 30.113281 3.667969 29.96875 C 3.257812 29.710938 3.761719 29.785156 3.574219 29.601562 C 3.53125 29.652344 3.503906 29.710938 3.488281 29.773438 C 3.207031 29.507812 2.796875 29.417969 2.546875 29.113281 C 2.308594 28.824219 1.949219 28.746094 1.757812 28.367188 C 1.410156 27.675781 0.859375 27.078125 0.488281 26.351562 C 0.652344 26.515625 1.34375 27.164062 1.097656 27.261719 C 1.15625 27.339844 1.226562 27.355469 1.316406 27.308594 C 1.335938 27.402344 1.382812 27.484375 1.457031 27.550781 C 1.578125 27.675781 1.914062 27.871094 1.75 28.085938 C 1.804688 28.226562 1.878906 28.039062 1.960938 28.265625 C 2.019531 28.429688 2.238281 28.367188 2.183594 28.605469 C 2.589844 28.71875 2.253906 28.292969 2.183594 28.605469 " fill-opacity="1" fill-rule="evenodd"/></g><g clip-path="url(#749e7f01a5)"><path fill="#000000" d="M 43.425781 13.921875 C 43.1875 14.085938 42.976562 14.285156 42.738281 14.453125 C 42.492188 14.628906 42.585938 14.71875 42.425781 14.960938 C 42.601562 15.0625 42.871094 14.679688 42.933594 14.574219 C 42.964844 14.519531 43.578125 13.933594 43.425781 13.921875 C 43.125 14.128906 43.523438 13.929688 43.425781 13.921875 Z M 42.382812 10.585938 C 42.316406 10.394531 42.300781 9.914062 42.078125 10.023438 C 42.15625 10.234375 42.214844 10.464844 42.382812 10.585938 Z M 41.90625 9.9375 C 41.9375 9.710938 41.4375 9.167969 41.039062 9.246094 C 41.3125 9.488281 41.566406 9.757812 41.90625 9.9375 Z M 41.167969 14.527344 C 41.035156 14.613281 41.03125 14.824219 40.949219 14.960938 C 41.140625 14.9375 41.144531 14.726562 41.167969 14.527344 Z M 40.992188 8.851562 C 40.867188 8.808594 40.828125 8.671875 40.644531 8.679688 C 40.65625 8.851562 40.863281 9.046875 40.992188 8.851562 Z M 40.730469 15.003906 C 40.902344 14.28125 41.246094 13.613281 41.441406 12.898438 C 41.554688 12.484375 41.886719 10.996094 41.296875 10.757812 C 41.234375 12.207031 41.0625 13.640625 40.558594 15.003906 L 40.730469 15.003906 C 40.964844 14.007812 40.671875 15.003906 40.730469 15.003906 Z M 39.210938 18.816406 C 39.6875 18.21875 39.980469 17.507812 40.320312 16.832031 C 40.398438 16.683594 40.476562 16.535156 40.558594 16.390625 C 40.699219 16.144531 40.613281 16.066406 40.707031 15.828125 C 40.804688 15.574219 41.058594 15.34375 40.992188 15.046875 C 40.199219 16.257812 39.644531 17.613281 38.90625 18.859375 C 39.007812 18.851562 39.109375 18.839844 39.210938 18.816406 C 39.851562 18.007812 39.070312 18.796875 39.210938 18.816406 Z M 38.90625 17.085938 C 38.738281 17.457031 38.339844 17.992188 38.382812 18.296875 C 38.625 17.988281 38.90625 17.488281 38.90625 17.085938 Z M 35.167969 28.257812 C 35.179688 28.199219 35.195312 28.140625 35.210938 28.085938 C 35.117188 28.128906 34.914062 28.105469 34.910156 28.257812 L 35.167969 28.257812 C 35.160156 28.175781 35.082031 28.257812 35.167969 28.257812 Z M 28.652344 30.421875 C 28.585938 30.429688 28.558594 30.398438 28.5625 30.335938 C 28.617188 30.351562 28.660156 30.335938 28.695312 30.292969 C 28.585938 30.273438 28.5 30.300781 28.433594 30.378906 C 28.527344 30.347656 28.570312 30.578125 28.652344 30.421875 C 28.597656 30.421875 28.570312 30.578125 28.652344 30.421875 Z M 29.433594 29.902344 C 29.839844 29.757812 30.207031 29.539062 30.574219 29.316406 C 30.648438 29.269531 31.21875 29.011719 31.210938 29.039062 C 30.769531 28.78125 29.902344 29.523438 29.527344 29.710938 C 29.066406 29.9375 28.113281 29.9375 27.824219 30.378906 C 28.277344 30.285156 29.003906 29.902344 29.355469 30.066406 C 29.375 30.078125 29.347656 29.914062 29.433594 29.902344 C 30.058594 29.679688 29.398438 29.910156 29.433594 29.902344 Z M 28.390625 30.378906 C 27.578125 30.679688 26.835938 30.609375 26.175781 31.074219 C 27 30.929688 27.855469 30.816406 28.390625 30.378906 Z M 29.214844 36.226562 C 27.800781 36.273438 27.136719 36.027344 25.957031 36.097656 C 27.015625 36.253906 28.464844 36.507812 29.214844 36.226562 Z M 24.738281 35.835938 C 24.578125 35.808594 24.464844 35.707031 24.347656 35.835938 C 24.433594 35.855469 24.671875 35.949219 24.738281 35.835938 Z M 23.21875 35.75 C 23.28125 35.640625 23.359375 35.628906 23.453125 35.71875 C 23.675781 35.875 23.496094 35.707031 23.691406 35.691406 C 23.8125 35.683594 24.226562 35.890625 24.304688 35.75 C 23.828125 35.664062 23.359375 35.507812 22.871094 35.492188 C 22.996094 35.558594 23.183594 35.585938 23.21875 35.75 C 23.300781 35.542969 23.183594 35.585938 23.21875 35.75 Z M 21.566406 35.144531 C 21.542969 35 21.339844 34.9375 21.175781 35.015625 C 21.316406 35.050781 21.394531 35.144531 21.566406 35.144531 Z M 20.699219 33.714844 C 20.789062 33.558594 20.476562 33.519531 20.523438 33.671875 C 20.605469 33.664062 20.617188 33.722656 20.699219 33.714844 Z M 20.914062 34.929688 C 20.515625 34.765625 19.996094 34.511719 19.695312 34.582031 C 20.148438 34.65625 20.421875 34.902344 20.914062 34.929688 Z M 18.523438 33.324219 C 18.496094 33.164062 18.125 33.121094 18.003906 33.195312 C 18.09375 33.289062 18.253906 33.316406 18.523438 33.324219 Z M 18.003906 33.757812 C 17.945312 33.660156 17.589844 33.625 17.480469 33.714844 C 17.648438 33.824219 17.847656 33.902344 18.003906 33.757812 Z M 17.480469 32.546875 C 17.199219 32.582031 17.023438 32.441406 16.917969 32.589844 C 17.046875 32.609375 17.359375 32.710938 17.480469 32.546875 Z M 18.394531 33.542969 C 18.183594 33.402344 16.570312 33 16.613281 33.238281 C 17.199219 33.378906 17.800781 33.441406 18.394531 33.542969 C 18.007812 33.28125 17.800781 33.441406 18.394531 33.542969 Z M 14.089844 32.503906 C 13.871094 32.550781 13.605469 32.230469 13.484375 32.460938 C 13.703125 32.429688 13.921875 32.625 14.089844 32.503906 Z M 13.4375 32.375 C 13.320312 32.289062 12.988281 32.191406 12.832031 32.285156 C 13.074219 32.347656 13.214844 32.472656 13.4375 32.375 Z M 5.269531 29.515625 C 5.691406 29.574219 6.058594 29.8125 6.429688 30.011719 C 6.628906 30.117188 6.832031 30.214844 7.046875 30.28125 C 7.425781 30.398438 7.105469 30.464844 7.464844 30.53125 C 7.859375 30.605469 8.207031 30.828125 8.605469 30.875 C 8.976562 30.921875 9.398438 30.9375 9.746094 31.160156 C 9.738281 31.347656 9.535156 31.164062 9.441406 31.203125 C 9.554688 31.355469 9.785156 31.355469 9.945312 31.417969 C 10.324219 31.558594 10.039062 31.40625 10.050781 31.203125 C 10.113281 31.214844 10.367188 31.515625 10.355469 31.289062 C 10.617188 31.460938 10.972656 31.457031 11.269531 31.515625 C 11.828125 31.625 12.351562 31.894531 12.941406 31.972656 C 13.175781 32.003906 13.425781 32.085938 13.613281 32.113281 C 13.777344 31.933594 14.117188 31.953125 14.335938 31.960938 C 14.644531 31.964844 14.957031 32.003906 15.265625 31.984375 C 15.34375 31.996094 15.382812 32.042969 15.386719 32.125 C 15.433594 32.273438 15.714844 32.199219 15.832031 32.199219 C 15.863281 32.308594 15.542969 32.277344 15.699219 32.375 C 15.441406 32.503906 15.175781 32.273438 14.917969 32.375 C 14.8125 32.269531 15.023438 32.230469 15.003906 32.113281 C 14.667969 32.113281 15.03125 32.230469 14.832031 32.332031 C 14.542969 32.257812 14.25 32.296875 13.960938 32.242188 C 14.070312 32.53125 14.539062 32.382812 14.742188 32.546875 C 14.75 32.609375 14.71875 32.636719 14.65625 32.632812 C 15.289062 32.800781 16.226562 32.921875 16.828125 32.589844 C 16.683594 32.257812 15.953125 32.84375 15.875 32.242188 C 16.105469 32.21875 16.242188 32.15625 16.445312 32.222656 C 16.71875 32.316406 16.972656 32.410156 17.265625 32.414062 C 17.1875 32.074219 16.664062 32.234375 16.4375 32.070312 C 16.851562 31.988281 17.402344 32.160156 17.78125 32.3125 C 18.023438 32.410156 18.289062 32.363281 18.550781 32.371094 C 18.59375 32.371094 19.296875 32.414062 19.167969 32.496094 C 19.128906 32.519531 18.953125 32.453125 18.957031 32.546875 C 18.988281 32.613281 19.359375 32.53125 19.355469 32.507812 C 19.320312 32.46875 19.304688 32.425781 19.308594 32.375 C 19.449219 32.40625 19.675781 32.378906 19.785156 32.503906 C 19.617188 32.261719 20.050781 32.386719 20.167969 32.378906 C 20.398438 32.363281 20.625 32.320312 20.847656 32.269531 C 21.421875 32.136719 21.980469 31.941406 22.554688 31.804688 C 23.042969 31.691406 23.558594 31.699219 24.042969 31.558594 C 24.304688 31.484375 24.386719 31.40625 24.644531 31.429688 C 24.886719 31.453125 25.167969 31.320312 25.347656 31.160156 C 24.894531 31.132812 24.457031 31.328125 24 31.289062 C 24.316406 31.042969 24.808594 31.046875 25.191406 31 C 25.375 30.976562 25.5625 30.953125 25.742188 30.898438 C 25.953125 30.839844 25.996094 30.855469 26.128906 30.855469 C 26.167969 30.824219 26.1875 30.78125 26.175781 30.726562 C 26.296875 30.738281 26.414062 30.730469 26.535156 30.695312 C 26.863281 30.609375 27.164062 30.449219 27.519531 30.46875 C 27.503906 30.371094 27.445312 30.328125 27.34375 30.335938 C 27.644531 29.941406 28.421875 29.847656 28.878906 29.652344 C 29.492188 29.394531 30.292969 29.199219 30.835938 28.839844 C 31.046875 28.703125 31.289062 28.617188 31.507812 28.492188 C 31.660156 28.40625 31.921875 28 32.015625 28.222656 C 32.027344 28.238281 32.714844 27.789062 32.832031 27.730469 C 33.160156 27.570312 33.390625 27.535156 33.429688 27.21875 C 33.730469 27.289062 34.125 26.660156 34.308594 26.457031 C 34.390625 26.363281 34.792969 26.0625 34.953125 26.179688 C 34.953125 26.019531 35.398438 25.714844 35.386719 25.921875 C 35.574219 25.816406 35.621094 25.566406 35.8125 25.429688 C 36.082031 25.238281 36.34375 25.035156 36.59375 24.820312 C 37.097656 24.390625 37.558594 23.917969 37.984375 23.414062 C 38.414062 22.902344 38.804688 22.363281 39.167969 21.804688 C 39.085938 21.351562 39.585938 21.203125 39.558594 20.722656 C 39.605469 20.730469 39.648438 20.742188 39.6875 20.765625 C 39.765625 20.109375 40.378906 19.679688 40.46875 19.03125 C 40.570312 18.335938 40.851562 18.144531 41.011719 17.601562 C 41.222656 16.878906 41.574219 16.207031 41.851562 15.511719 C 41.945312 15.277344 42.296875 13.730469 42.46875 13.792969 C 42.289062 13.097656 42.703125 12.445312 42.601562 11.753906 C 42.359375 12.003906 42.273438 12.382812 42.207031 12.707031 C 41.914062 12.558594 42.242188 11.558594 42.222656 11.308594 C 42.171875 10.675781 41.789062 9.976562 41.210938 9.675781 C 41.136719 10.074219 41.371094 10.351562 41.570312 10.664062 C 41.863281 11.105469 41.769531 11.652344 41.785156 12.152344 C 41.804688 12.738281 41.785156 13.328125 41.648438 13.898438 C 41.515625 14.453125 41.230469 14.933594 41.074219 15.480469 C 40.769531 16.542969 40.277344 17.550781 39.644531 18.457031 C 39.503906 18.652344 39.363281 18.847656 39.210938 19.03125 C 38.820312 19.015625 38.8125 19.03125 38.570312 19.367188 C 38.398438 19.605469 37.929688 20.605469 37.558594 20.246094 C 37.886719 20.054688 37.824219 19.492188 38.253906 19.421875 C 38.398438 19.199219 38.476562 18.9375 38.613281 18.710938 C 38.675781 18.597656 38.757812 18.503906 38.863281 18.425781 C 38.828125 18.324219 38.828125 18.222656 38.863281 18.121094 C 38.722656 18.0625 38.375 18.859375 38.339844 19.121094 C 37.84375 19.164062 37.6875 19.855469 37.472656 20.203125 C 37.445312 20.148438 37.402344 20.121094 37.339844 20.117188 C 37.335938 20.265625 37.472656 20.316406 37.382812 20.460938 C 37.492188 20.511719 37.488281 20.351562 37.523438 20.304688 C 37.613281 20.191406 37.613281 20.613281 37.601562 20.589844 C 37.316406 20.414062 37.003906 21.128906 36.84375 21.367188 C 36.589844 21.753906 36.269531 22.140625 35.777344 22.195312 C 36.207031 21.964844 36.644531 21.636719 36.644531 21.15625 C 37.070312 20.976562 37.136719 20.441406 37.296875 20.070312 C 37.28125 20.046875 37.085938 20.207031 36.992188 20.160156 C 36.984375 19.90625 37.304688 19.933594 37.417969 19.753906 C 37.613281 19.441406 37.835938 19.097656 37.90625 18.730469 C 37.558594 19.101562 37.195312 19.167969 36.945312 19.675781 C 36.691406 20.1875 36.582031 20.773438 36.222656 21.230469 C 36.070312 21.421875 36.011719 21.445312 35.964844 21.652344 C 35.921875 21.839844 35.675781 21.835938 35.71875 22.042969 C 35.773438 22.28125 34.917969 23.09375 34.648438 23.148438 C 34.707031 22.996094 35.136719 22.378906 35.300781 22.542969 C 35.296875 22.46875 35.28125 22.394531 35.253906 22.324219 C 35.40625 22.214844 35.507812 22.058594 35.597656 21.898438 C 35.769531 21.585938 36.046875 21.289062 36.136719 20.96875 C 36.21875 20.664062 36.839844 19.019531 37.082031 19.03125 C 37 18.652344 37.347656 18.074219 37.519531 17.65625 C 37.789062 16.976562 38.023438 16.285156 38.167969 15.566406 C 38.238281 16.304688 38 17 37.738281 17.679688 C 37.59375 18.054688 37.441406 18.425781 37.339844 18.816406 C 37.472656 19.089844 37.78125 18.738281 37.84375 18.597656 C 38.210938 17.820312 38.890625 16.925781 38.820312 15.871094 C 39.042969 15.984375 38.898438 16.160156 38.949219 16.347656 C 39.386719 15.914062 39.140625 15.144531 38.777344 14.746094 C 38.53125 14.484375 38.515625 14.574219 38.820312 14.484375 C 38.945312 14.839844 39.351562 14.996094 39.429688 15.394531 C 39.589844 15.15625 39.652344 14.808594 39.6875 14.527344 C 39.851562 14.570312 39.730469 15.28125 39.65625 15.457031 C 39.558594 15.695312 39.457031 15.863281 39.410156 16.183594 C 39.351562 16.578125 39.316406 17.027344 39.121094 17.386719 C 39.25 17.457031 39.5625 16.53125 39.558594 16.433594 C 39.746094 16.433594 39.566406 16.605469 39.601562 16.695312 C 39.667969 16.394531 39.789062 16.105469 39.839844 15.796875 C 39.886719 15.515625 39.980469 15.546875 40.066406 15.230469 C 40.183594 14.789062 40.347656 14.25 39.859375 13.964844 C 39.933594 13.90625 40.3125 14.234375 40.292969 14.082031 C 40.285156 14.003906 40.167969 13.984375 40.140625 13.917969 C 40.105469 13.839844 40.332031 13.988281 40.347656 14.074219 C 40.371094 14.183594 40.324219 14.34375 40.382812 14.441406 C 40.851562 14.121094 40.867188 12.761719 40.992188 12.1875 C 40.472656 12.878906 39.984375 13.570312 39.292969 13.960938 C 38.90625 14.179688 38.5625 14.46875 38.144531 14.636719 C 37.945312 14.71875 37.730469 14.769531 37.515625 14.789062 C 37.347656 14.777344 37.429688 15.027344 37.253906 15.003906 C 37.121094 14.78125 38.226562 14.035156 38.425781 13.921875 C 38.382812 14.070312 38.273438 14.179688 38.125 14.226562 C 38.941406 14.160156 39.453125 13.425781 40.125 13.054688 C 40.71875 12.359375 41.195312 11.308594 40.515625 10.5 C 40.855469 10.480469 40.816406 10.863281 40.863281 10.371094 C 41.132812 10.410156 40.933594 10.691406 40.949219 10.847656 C 41.261719 10.675781 41.042969 10.238281 40.773438 10.152344 C 40.808594 10.015625 40.945312 10.132812 41.039062 10.109375 C 41.015625 9.804688 40.84375 9.140625 40.464844 9.117188 C 40.535156 9.136719 40.613281 9.152344 40.6875 9.160156 C 40.730469 9.027344 40.578125 9.078125 40.515625 9.070312 C 40.882812 8.613281 39.671875 8.414062 39.519531 8.386719 C 38.898438 8.269531 38.207031 8.769531 37.863281 9.246094 C 37.878906 8.523438 38.597656 8.269531 39.1875 8.113281 C 39.78125 7.960938 40.613281 8.257812 41.160156 8.65625 C 41.445312 8.867188 41.675781 9.246094 42.035156 9.246094 C 42.191406 9.542969 42.53125 9.65625 42.726562 9.917969 C 42.96875 10.242188 42.660156 10.449219 42.769531 10.796875 C 42.878906 11.128906 43.015625 11.390625 42.945312 11.753906 C 43.117188 11.75 43.082031 11.539062 43.164062 11.453125 C 43.308594 12.117188 43.148438 12.867188 43.078125 13.53125 C 42.996094 13.519531 42.925781 13.488281 42.859375 13.445312 C 42.824219 13.566406 42.507812 14.1875 42.6875 14.226562 C 42.890625 14.050781 43.097656 13.875 43.285156 13.679688 C 43.65625 13.292969 43.996094 12.796875 43.945312 12.230469 C 44.726562 12.339844 43.617188 14.035156 43.480469 14.253906 C 43.234375 14.640625 42.117188 15.195312 42.339844 15.742188 C 42.347656 15.539062 42.859375 14.898438 42.859375 15.308594 C 42.902344 15.195312 42.96875 14.863281 43.164062 15.003906 C 43.183594 14.738281 43.242188 14.789062 43.480469 14.582031 C 43.589844 14.488281 43.691406 14.386719 43.777344 14.273438 C 43.988281 14.003906 43.910156 14.21875 44.109375 14.03125 C 44.460938 13.695312 44.773438 13.367188 44.949219 12.925781 C 45.128906 12.871094 45.003906 13.132812 45.164062 13.097656 C 44.949219 13.367188 44.738281 13.636719 44.527344 13.90625 C 44.3125 14.179688 44.121094 14.242188 43.976562 14.453125 C 43.773438 14.746094 43.433594 14.863281 43.199219 15.117188 C 42.957031 15.375 42.695312 15.621094 42.394531 15.804688 C 42.113281 15.972656 42.019531 15.941406 41.949219 16.25 C 41.863281 16.625 41.628906 16.976562 41.457031 17.335938 C 41.058594 18.167969 40.730469 19.027344 40.425781 19.898438 C 40.675781 19.867188 40.929688 19.875 41.167969 19.789062 C 41.457031 19.683594 41.707031 19.675781 42.023438 19.570312 C 42.679688 19.355469 43.269531 19.296875 43.933594 19.042969 C 44.667969 18.761719 45.441406 18.585938 46.171875 18.300781 C 46.664062 18.109375 47.019531 17.828125 47.511719 17.605469 C 47.289062 18.195312 46.46875 18.628906 45.976562 19.019531 C 45.320312 19.539062 44.640625 20.03125 43.878906 20.394531 C 43.398438 20.628906 43.105469 20.839844 42.671875 21.03125 C 42.476562 21.113281 42.378906 21.125 42.109375 21.285156 C 41.695312 21.523438 41.230469 21.664062 40.773438 21.804688 C 40.75 21.335938 41.683594 21.582031 41.730469 21.15625 C 41.972656 21.269531 42.027344 20.886719 42.253906 21.023438 C 42.394531 20.988281 42.257812 20.929688 42.339844 20.851562 C 42.550781 20.863281 42.671875 20.761719 42.816406 20.632812 C 43.148438 20.777344 43.65625 20.289062 43.976562 20.148438 C 44.691406 19.832031 45.511719 19.1875 46.074219 18.644531 C 45.753906 18.667969 45.480469 18.839844 45.222656 19.027344 C 44.882812 19.273438 44.488281 19.410156 44.152344 19.652344 C 43.335938 20.238281 42.375 20.601562 41.46875 21.023438 C 41.496094 20.925781 41.746094 20.855469 41.730469 20.765625 C 41.707031 20.683594 41.570312 20.828125 41.511719 20.808594 C 41.617188 20.699219 41.753906 20.578125 41.902344 20.542969 C 42.085938 20.496094 42.113281 20.378906 42.308594 20.316406 C 42.6875 20.191406 43.070312 19.9375 43.511719 19.855469 C 43.511719 19.445312 44.855469 19.417969 44.902344 18.945312 C 44.660156 18.984375 44.703125 19.160156 44.402344 19.230469 C 44.023438 19.320312 43.644531 19.414062 43.265625 19.511719 C 42.632812 19.675781 42 19.839844 41.359375 19.964844 C 40.945312 20.046875 40.261719 19.929688 40.199219 20.425781 C 40.152344 20.789062 40.570312 20.503906 40.515625 20.851562 C 40.304688 20.886719 40.355469 20.734375 40.117188 20.90625 C 39.960938 21.019531 39.847656 21.183594 39.722656 21.332031 C 39.542969 21.542969 39.453125 21.535156 39.371094 21.808594 C 39.292969 22.078125 39.171875 22.332031 39.019531 22.570312 C 38.839844 22.851562 37.640625 24.5 37.425781 24.449219 C 36.625 25.246094 35.761719 25.984375 34.851562 26.652344 C 34.683594 26.777344 33.472656 27.523438 33.53125 27.644531 C 33.5625 27.703125 32.753906 28.25 32.648438 28.386719 C 33.0625 28.71875 33.84375 28.273438 34.269531 28.148438 C 34.652344 28.035156 35.035156 27.914062 35.425781 27.8125 C 35.546875 27.785156 36.074219 27.566406 36.09375 27.574219 C 36.222656 27.636719 37.363281 27.136719 37.585938 27.046875 C 37.816406 26.953125 38.070312 26.941406 38.257812 26.832031 C 38.582031 26.644531 38.957031 26.488281 39.339844 26.484375 C 39.171875 26.390625 39.539062 26.230469 39.644531 26.394531 C 39.449219 26.207031 40.25 26.066406 40.355469 26.019531 C 40.691406 25.875 41.183594 25.71875 41.441406 25.5 C 41.6875 25.289062 43.871094 24.808594 43.210938 24.144531 C 43.628906 24.125 43.699219 23.449219 44.121094 23.539062 C 43.785156 23.277344 44.699219 23.257812 44.6875 23.277344 C 44.867188 23.523438 44.246094 23.511719 44.519531 23.789062 C 44.742188 24.011719 44.804688 23.523438 45.078125 23.667969 C 44.300781 24.066406 43.945312 24.972656 43.164062 25.355469 C 42.433594 26.054688 41.410156 26.617188 40.515625 27.097656 C 38.527344 28.15625 36.308594 28.742188 34.125 29.253906 C 34.128906 29.164062 34.113281 29.078125 34.082031 28.996094 C 34.226562 28.929688 34.386719 28.910156 34.539062 28.886719 C 34.804688 28.847656 35.199219 28.824219 35.300781 28.515625 C 36.289062 28.410156 37.25 28.148438 38.167969 27.78125 C 39.015625 27.445312 39.824219 27.035156 40.65625 26.664062 C 41.308594 26.367188 42.242188 25.746094 42.644531 25.136719 C 42.058594 25.453125 41.476562 25.773438 40.855469 26.011719 C 40.203125 26.257812 39.578125 26.570312 38.914062 26.792969 C 38.253906 27.015625 37.707031 27.296875 37.0625 27.5 C 36.738281 27.601562 36.410156 27.703125 36.097656 27.84375 C 35.96875 27.902344 35.453125 27.9375 35.429688 28.085938 C 35.78125 28.050781 36.285156 28.101562 36.429688 27.824219 C 36.734375 28.003906 36.949219 27.550781 37.253906 27.738281 C 37.277344 27.667969 37.261719 27.613281 37.210938 27.566406 C 37.3125 27.601562 37.507812 27.523438 37.601562 27.523438 C 37.601562 28.035156 36.550781 28.085938 36.105469 28.1875 C 35.375 28.351562 34.675781 28.476562 33.921875 28.550781 C 33.179688 28.625 32.351562 28.574219 31.699219 28.984375 C 31.1875 29.308594 30.59375 29.765625 30.019531 29.980469 C 29.765625 30.074219 29.6875 30.234375 29.429688 30.339844 C 29.125 30.464844 28.816406 30.585938 28.503906 30.703125 C 27.773438 30.972656 27.027344 31.214844 26.269531 31.386719 C 25.953125 31.460938 22.445312 32.273438 22.4375 32.222656 C 22.449219 32.289062 22.574219 32.257812 22.597656 32.316406 C 22.679688 32.519531 22.339844 32.230469 22.390625 32.242188 C 22.253906 32.320312 22.308594 32.539062 22.089844 32.503906 C 22.066406 32.433594 22.214844 32.324219 22.089844 32.285156 C 22 32.28125 21.984375 32.316406 22.042969 32.386719 C 22.125 32.605469 21.664062 32.539062 21.542969 32.558594 C 21.074219 32.640625 20.613281 32.78125 20.132812 32.808594 C 20.246094 32.890625 20.363281 32.941406 20.347656 33.109375 C 20.585938 33.15625 20.820312 33.21875 21.054688 33.28125 C 21.535156 33.402344 22.027344 33.515625 22.523438 33.457031 C 22.3125 33.191406 21.890625 33.222656 21.699219 32.9375 C 22.273438 32.945312 22.851562 33.3125 23.417969 33.464844 C 23.558594 33.503906 23.710938 33.554688 23.828125 33.65625 C 24 33.808594 24.167969 33.78125 24.394531 33.835938 C 24.585938 33.878906 24.769531 33.941406 24.957031 33.992188 C 25.253906 34.070312 25.296875 33.949219 25.304688 34.234375 C 25.832031 34 26.621094 34.191406 27.171875 34.234375 C 26.832031 34.511719 26.417969 34.519531 26.003906 34.4375 C 25.746094 34.386719 24.769531 34.296875 24.78125 34.019531 C 24.703125 34.027344 24.675781 34.070312 24.695312 34.148438 C 24.066406 33.980469 23.457031 33.71875 22.804688 33.636719 C 22.144531 33.554688 21.488281 33.761719 20.828125 33.628906 C 20.792969 33.835938 22.925781 34.195312 23.21875 34.191406 C 23.167969 34.320312 23.152344 34.449219 23.175781 34.582031 C 22.808594 34.441406 22.429688 34.25 22.027344 34.304688 C 21.710938 34.34375 21.542969 34.230469 21.179688 34.167969 C 20.269531 34.011719 19.394531 33.710938 18.480469 33.585938 C 18.589844 33.769531 18.839844 33.796875 19.015625 33.890625 C 19.164062 33.964844 19.480469 34.152344 19.480469 34.277344 C 19.660156 34.226562 19.46875 34.09375 19.4375 34.019531 C 19.707031 34.070312 19.960938 34.203125 20.199219 34.328125 C 20.476562 34.476562 20.625 34.46875 20.902344 34.554688 C 21.082031 34.609375 22.097656 34.929688 22.089844 35.101562 C 22.296875 35.15625 22.042969 34.957031 22.457031 35.097656 C 22.714844 35.183594 22.96875 35.269531 23.230469 35.339844 C 23.707031 35.464844 24.476562 35.335938 24.871094 35.605469 C 25.441406 36.003906 26.707031 35.769531 27.449219 35.96875 C 28.421875 36.230469 29.632812 35.925781 30.636719 35.90625 C 30.871094 35.902344 31.109375 35.90625 31.34375 35.925781 C 31.601562 35.945312 31.765625 35.722656 31.996094 35.664062 C 32.164062 35.625 32.253906 35.714844 32.34375 35.835938 C 32.660156 35.6875 33.019531 35.78125 33.34375 35.664062 C 33.15625 35.769531 32.957031 35.816406 32.742188 35.832031 C 32.34375 35.871094 32.398438 35.894531 32.167969 36.140625 C 31.472656 36.273438 30.769531 36.40625 30.0625 36.488281 C 28.722656 36.648438 27.320312 36.65625 25.988281 36.4375 C 25.316406 36.332031 24.683594 36.128906 24.007812 36.046875 C 23.339844 35.964844 22.683594 35.808594 22.035156 35.621094 C 21.414062 35.433594 20.800781 35.222656 20.179688 35.039062 C 19.902344 34.960938 19.582031 34.925781 19.410156 34.738281 C 19.335938 34.660156 19.105469 34.40625 19.4375 34.453125 C 18.988281 34.332031 18.621094 34.078125 18.136719 34.105469 C 18.199219 34.398438 18.5 34.5 18.632812 34.746094 C 18.710938 34.886719 18.632812 35.011719 18.769531 35.046875 C 18.875 35.078125 18.960938 35.214844 19.011719 35.300781 C 19.160156 35.542969 19.195312 35.75 19.351562 35.96875 C 19.558594 36.261719 19.59375 36.660156 19.578125 37.007812 C 19.550781 37.683594 19.152344 38.117188 19.003906 38.699219 C 18.601562 38.804688 18.519531 39.003906 18.308594 38.566406 C 17.851562 38.464844 18.101562 37.96875 18.089844 37.65625 C 18.253906 37.847656 18.210938 38.144531 18.304688 38.371094 C 18.519531 38.867188 18.882812 38.46875 19.042969 38.1875 C 19.238281 37.839844 19.371094 37.449219 19.390625 37.050781 C 19.402344 36.78125 19.011719 36.046875 19.175781 35.882812 C 19.003906 35.929688 18.886719 35.605469 18.847656 35.5 C 18.738281 35.207031 18.566406 35.082031 18.339844 34.851562 C 18.125 34.632812 17.910156 34.410156 17.65625 34.234375 C 17.351562 34.351562 17.234375 34.703125 16.917969 34.796875 C 16.84375 34.363281 17.308594 34.597656 17.351562 34.234375 C 17.394531 33.886719 16.867188 33.730469 16.625 33.636719 C 15.421875 33.195312 16.609375 33.765625 16.4375 34.105469 C 16.203125 33.921875 15.984375 33.71875 15.746094 33.539062 C 15.703125 33.503906 15.089844 33.136719 15.132812 33.246094 C 15.195312 33.417969 15.445312 33.523438 15.570312 33.636719 C 15.84375 33.886719 16.066406 34.183594 16.257812 34.492188 C 16.628906 35.101562 16.394531 35.648438 15.65625 35.75 C 15.605469 35.621094 16.066406 35.550781 16.152344 35.425781 C 16.425781 35.027344 16.210938 34.558594 15.921875 34.25 C 15.628906 33.9375 15.246094 33.699219 14.988281 33.355469 C 14.78125 33.070312 13.875 33.226562 13.875 32.894531 C 13.847656 33.113281 13.558594 32.976562 13.570312 32.808594 C 13.179688 33.097656 12.597656 32.769531 12.179688 32.71875 C 12.265625 32.414062 12.714844 32.730469 12.917969 32.675781 C 12.722656 32.503906 12.441406 32.457031 12.195312 32.386719 C 11.925781 32.308594 11.75 32.34375 11.550781 32.28125 C 10.890625 32.078125 10.203125 31.984375 9.539062 31.796875 C 8.851562 31.601562 8.140625 31.371094 7.464844 31.125 C 7.28125 31.058594 5.988281 30.285156 5.921875 30.597656 C 5.828125 30.433594 5.671875 30.347656 5.488281 30.335938 C 5.878906 29.914062 6.421875 30.539062 6.878906 30.378906 C 6.296875 30.179688 5.816406 29.785156 5.269531 29.515625 C 5.941406 29.609375 5.882812 29.820312 5.269531 29.515625 " fill-opacity="1" fill-rule="evenodd"/></g><path fill="#000000" d="M 18.871094 30.898438 C 18.859375 31.042969 18.644531 30.949219 18.613281 31.074219 C 18.789062 31.074219 19.027344 31.1875 19.175781 31.03125 C 19.050781 31.050781 19.144531 30.871094 19.046875 30.855469 C 19.019531 31.007812 19 30.960938 18.871094 30.898438 C 18.859375 31.03125 19.035156 30.980469 18.871094 30.898438 Z M 18.394531 30.425781 C 18.613281 30.386719 19.703125 30.039062 19.175781 29.644531 C 19 29.988281 18.59375 30.109375 18.394531 30.425781 C 18.625 30.386719 18.527344 30.210938 18.394531 30.425781 Z M 18.261719 31.03125 C 18.105469 30.949219 18.144531 30.71875 18.046875 30.597656 C 17.929688 30.757812 17.386719 30.832031 17.445312 31.085938 C 17.441406 31.070312 18.179688 31.078125 18.261719 31.03125 C 18.117188 30.957031 18.019531 31.167969 18.261719 31.03125 Z M 15.265625 31.375 C 15.320312 31.320312 15.382812 31.316406 15.449219 31.367188 C 15.597656 31.445312 15.660156 31.296875 15.792969 31.195312 C 16.023438 31.019531 16.269531 30.863281 16.5 30.6875 C 16.660156 30.566406 17.78125 29.164062 17.175781 29.210938 C 17.523438 28.871094 17.433594 29.78125 17.371094 29.921875 C 17.226562 30.25 16.921875 30.75 16.527344 30.945312 C 16.925781 31.054688 17.230469 30.667969 17.613281 30.640625 C 18.089844 30.316406 18.503906 29.902344 19.003906 29.601562 C 19.003906 29.375 19.046875 29.429688 19.214844 29.324219 C 19.414062 29.195312 19.484375 29.007812 19.65625 28.800781 C 19.972656 28.417969 20.378906 28.101562 20.609375 27.652344 C 20.652344 27.683594 20.695312 27.710938 20.742188 27.738281 C 20.820312 27.464844 20.585938 27.667969 20.84375 27.351562 C 20.980469 27.179688 21.109375 27 21.226562 26.8125 C 21.515625 26.34375 21.730469 25.832031 21.914062 25.3125 C 21.984375 25.6875 21.695312 25.972656 21.675781 26.328125 C 21.660156 26.761719 21.117188 27.355469 20.855469 27.730469 C 20.300781 28.535156 19.761719 28.921875 19.480469 29.859375 C 20.140625 29.550781 20.703125 28.75 21.113281 28.171875 C 21.484375 27.65625 21.890625 26.714844 22.523438 26.4375 C 22.511719 26.6875 22.292969 27.121094 22.140625 27.253906 C 21.769531 27.574219 21.59375 28.046875 21.304688 28.429688 C 21.425781 28.382812 22.089844 27.996094 22.089844 28.003906 C 22.0625 28.179688 21.292969 28.757812 21.132812 28.777344 C 21.085938 28.625 21.324219 28.613281 21.304688 28.429688 C 21.109375 28.503906 20.96875 28.652344 20.832031 28.804688 C 20.582031 29.082031 20.859375 29.046875 20.785156 29.339844 C 20.894531 29.339844 20.886719 29.207031 21 29.210938 C 20.832031 29.738281 20.320312 29.9375 19.914062 30.25 C 20.203125 30.28125 20.441406 30.019531 20.648438 29.867188 C 20.730469 29.804688 21.230469 29.507812 21.304688 29.515625 C 21.25 29.765625 21.035156 29.902344 20.828125 30.015625 C 20.484375 30.207031 20.636719 30.175781 20.566406 30.46875 C 21.011719 30.476562 21.554688 30.148438 21.699219 29.816406 C 21.796875 29.886719 21.589844 30.195312 21.53125 30.214844 C 21.359375 30.214844 21.304688 30.3125 21.367188 30.507812 C 21.300781 30.839844 21.207031 30.699219 20.933594 30.730469 C 20.585938 30.777344 20.4375 30.851562 20.101562 30.820312 C 19.84375 30.792969 19.496094 30.832031 19.308594 31.03125 C 19.941406 31.078125 20.613281 31.15625 21.238281 30.988281 C 21.5 30.921875 21.777344 30.785156 21.871094 30.511719 C 21.992188 30.507812 22.398438 30.167969 22.390625 30.121094 C 22.574219 30.382812 22.019531 30.675781 21.914062 30.855469 C 21.949219 31.011719 22.300781 30.980469 22.347656 30.8125 C 22.390625 30.847656 22.40625 30.890625 22.390625 30.945312 C 22.5 30.929688 22.480469 30.792969 22.609375 30.8125 C 22.550781 31.292969 21.75 30.886719 21.566406 31.246094 C 21.253906 31.292969 19.320312 31.609375 19.261719 31.203125 C 19.222656 31.253906 19.195312 31.3125 19.175781 31.375 C 18.929688 31.390625 18.679688 31.375 18.433594 31.347656 C 18.066406 31.304688 17.703125 31.230469 17.335938 31.207031 C 16.652344 31.171875 15.925781 31.707031 15.265625 31.375 C 15.300781 31.273438 15.875 31.683594 15.265625 31.375 " fill-opacity="1" fill-rule="evenodd"/><path fill="#000000" d="M 19.351562 31.808594 C 20.046875 31.554688 20.824219 31.714844 21.523438 31.464844 C 22.335938 31.539062 23.105469 31.265625 23.914062 31.246094 C 23.347656 31.59375 22.300781 31.621094 21.652344 31.640625 C 20.882812 31.664062 20.121094 31.792969 19.351562 31.808594 C 20.03125 31.5625 20.398438 31.789062 19.351562 31.808594 " fill-opacity="1" fill-rule="evenodd"/><path fill="#000000" d="M 21.523438 29.515625 C 21.492188 29.457031 21.464844 29.457031 21.4375 29.515625 C 21.355469 29.03125 22.3125 28.824219 22.523438 28.476562 C 22.441406 28.730469 22.214844 28.9375 21.992188 29.078125 C 21.632812 29.300781 21.636719 29.179688 21.523438 29.515625 C 21.488281 29.523438 21.546875 29.441406 21.523438 29.515625 " fill-opacity="1" fill-rule="evenodd"/><path fill="#000000" d="M 23.695312 30.683594 C 23.730469 30.453125 23.957031 30.679688 24.042969 30.511719 C 24.058594 30.613281 23.855469 30.679688 23.695312 30.683594 " fill-opacity="1" fill-rule="evenodd"/><path fill="#000000" d="M 26.738281 26.132812 C 26.371094 26.261719 26.1875 27.011719 25.867188 26.960938 C 25.800781 26.558594 26.285156 26.390625 26.429688 26.078125 C 26.53125 25.867188 26.597656 25.957031 26.726562 25.78125 C 26.886719 25.566406 26.894531 25.621094 27.085938 25.488281 C 27.152344 25.746094 26.628906 25.851562 26.738281 26.132812 C 26.382812 26.257812 26.640625 25.886719 26.738281 26.132812 " fill-opacity="1" fill-rule="evenodd"/><path fill="#000000" d="M 29.953125 24.230469 C 29.734375 24.15625 29.664062 24.230469 29.734375 24.449219 C 29.855469 24.421875 29.929688 24.347656 29.953125 24.230469 C 29.882812 24.230469 29.898438 24.320312 29.953125 24.230469 Z M 29.910156 23.0625 C 29.746094 23.082031 29.71875 23.246094 29.691406 23.40625 C 29.90625 23.433594 29.855469 23.195312 29.910156 23.0625 Z M 29.820312 23.539062 C 29.839844 23.820312 29.578125 24.0625 29.433594 24.273438 C 29.726562 24.4375 29.8125 23.804688 30.128906 23.972656 C 30.203125 23.785156 30.019531 23.910156 29.996094 23.796875 C 30.402344 23.242188 31.3125 22.398438 31.257812 21.632812 C 30.660156 22.179688 30.414062 22.992188 29.820312 23.539062 C 29.835938 23.792969 30.390625 23.015625 29.820312 23.539062 Z M 29.519531 24.925781 C 29.566406 24.71875 29.71875 24.683594 29.691406 24.449219 C 29.382812 24.714844 28.980469 24.910156 28.824219 25.3125 C 29.171875 25.339844 29.144531 24.855469 29.519531 24.925781 C 29.578125 24.667969 29.078125 24.84375 29.519531 24.925781 Z M 29.605469 25.703125 C 29.484375 25.710938 29.480469 25.519531 29.476562 25.746094 C 29.433594 25.710938 29.421875 25.667969 29.433594 25.617188 C 29.304688 25.59375 29.316406 25.742188 29.171875 25.703125 C 29.105469 25.609375 29.246094 25.40625 29.257812 25.3125 C 28.703125 25.058594 27.941406 26.671875 27.824219 27.046875 C 28.238281 26.605469 28.628906 26.140625 28.996094 25.660156 C 29.132812 25.6875 28.859375 25.792969 29.128906 25.746094 C 29.039062 25.992188 28.914062 26.25 28.652344 26.351562 C 28.488281 26.707031 28.210938 26.984375 27.933594 27.246094 C 27.546875 27.617188 27.195312 28.289062 26.605469 28.34375 C 26.726562 28.136719 26.851562 28.046875 26.972656 27.867188 C 27.015625 27.785156 27.078125 27.742188 27.171875 27.738281 C 27.132812 27.53125 27.230469 27.394531 27.359375 27.265625 C 27.867188 26.75 27.96875 25.933594 28.5625 25.488281 C 28.578125 25.367188 28.550781 25.261719 28.476562 25.167969 C 28.34375 24.925781 28.585938 24.992188 28.738281 24.886719 C 28.886719 24.785156 29.332031 24.144531 28.886719 24.15625 C 28.695312 24.160156 28.578125 24.46875 28.507812 24.605469 C 28.453125 24.710938 28.394531 24.839844 28.300781 24.925781 C 28.277344 25.054688 28.492188 25.15625 28.390625 25.269531 C 28.3125 25.261719 28.28125 25.21875 28.300781 25.136719 C 27.90625 25.28125 27.738281 25.816406 27.515625 26.039062 C 27.027344 26.53125 26.722656 27.175781 26.175781 27.609375 C 26.167969 27.242188 26.507812 26.992188 26.703125 26.71875 C 27 26.308594 27.359375 25.949219 27.660156 25.523438 C 28.195312 24.75 28.644531 24.175781 29.171875 23.320312 C 29.433594 23.511719 28.609375 23.988281 29.257812 24.015625 C 29.382812 23.625 29.476562 23.324219 29.65625 22.96875 C 29.722656 22.835938 30.121094 22.109375 30.179688 22.136719 C 30.164062 22.128906 30.773438 21.089844 30.910156 20.941406 C 30.6875 21.683594 30.234375 22.316406 29.910156 23.015625 C 30.320312 22.632812 30.613281 22.160156 30.941406 21.707031 C 31.078125 21.515625 31.226562 21.328125 31.386719 21.15625 C 31.378906 21.089844 31.21875 20.65625 31.429688 20.722656 C 31.273438 20.535156 31.335938 20.269531 31.257812 20.054688 C 31.242188 19.902344 31.183594 19.863281 31.082031 19.925781 C 30.949219 20.164062 30.992188 19.917969 30.867188 19.855469 C 31.175781 19.832031 31.363281 19.5625 31.695312 19.59375 C 31.527344 19.769531 31.160156 20.027344 31.527344 20.289062 C 31.824219 20.492188 31.753906 20.90625 31.695312 21.285156 C 31.773438 21.234375 32.074219 20.867188 31.824219 20.851562 C 32.1875 20.71875 32.164062 20.226562 32.476562 20.03125 C 32.488281 20.042969 32.085938 20.976562 32.015625 21.113281 C 31.808594 21.535156 31.550781 21.9375 31.476562 22.410156 C 30.734375 23.441406 30.332031 24.664062 29.605469 25.703125 C 29.484375 25.710938 30.316406 24.691406 29.605469 25.703125 " fill-opacity="1" fill-rule="evenodd"/><path fill="#000000" d="M 29.519531 28.300781 C 29.488281 28.113281 29.746094 28.210938 29.78125 28.085938 C 29.851562 28.144531 29.648438 28.296875 29.519531 28.300781 " fill-opacity="1" fill-rule="evenodd"/><path fill="#000000" d="M 30.734375 27.652344 C 30.839844 27.570312 30.949219 27.488281 31.125 27.480469 C 30.996094 27.535156 30.925781 27.652344 30.734375 27.652344 " fill-opacity="1" fill-rule="evenodd"/><path fill="#000000" d="M 33.082031 23.234375 C 33.179688 23.582031 32.730469 23.757812 32.734375 24.101562 C 32.691406 24.09375 32.644531 24.078125 32.605469 24.058594 C 32.535156 24.355469 32.257812 25.0625 31.996094 25.054688 C 32.046875 25.136719 32.121094 25.195312 32.214844 25.226562 C 32.039062 25.484375 31.722656 25.585938 31.476562 25.355469 C 31.953125 25.316406 32.085938 24.820312 32.21875 24.445312 C 32.289062 24.253906 32.527344 23.738281 32.734375 23.753906 C 32.734375 23.496094 32.8125 23.414062 33.007812 23.242188 C 33.171875 23.09375 33.082031 22.921875 33.230469 22.707031 C 33.378906 22.480469 33.46875 22.375 33.601562 22.121094 C 33.738281 21.863281 33.941406 21.632812 34.167969 21.457031 C 34.167969 21.742188 33.851562 22.410156 33.601562 22.410156 C 33.671875 22.566406 33.472656 23.011719 33.257812 22.929688 C 33.292969 23.101562 33.300781 23.21875 33.082031 23.234375 C 33.1875 23.605469 33.34375 23.21875 33.082031 23.234375 " fill-opacity="1" fill-rule="evenodd"/><path fill="#000000" d="M 31.867188 19.59375 C 31.816406 19.542969 31.707031 19.582031 31.738281 19.464844 C 31.910156 19.574219 31.953125 19.363281 32.125 19.378906 C 32.097656 19.519531 31.894531 19.457031 31.867188 19.59375 C 31.824219 19.550781 31.894531 19.464844 31.867188 19.59375 " fill-opacity="1" fill-rule="evenodd"/><path fill="#000000" d="M 32.039062 29.296875 C 32.71875 29.332031 33.402344 29.285156 34.039062 29.039062 C 34.039062 29.292969 34.21875 29.277344 33.847656 29.363281 C 33.625 29.414062 33.394531 29.417969 33.214844 29.253906 C 32.917969 29.457031 32.324219 29.585938 32.039062 29.296875 C 32.777344 29.332031 32.316406 29.578125 32.039062 29.296875 " fill-opacity="1" fill-rule="evenodd"/><path fill="#000000" d="M 32.90625 18.902344 C 33.359375 18.648438 33.695312 18.269531 34.210938 18.082031 C 33.90625 18.484375 33.417969 18.703125 32.90625 18.902344 " fill-opacity="1" fill-rule="evenodd"/><path fill="#000000" d="M 33.214844 26.613281 C 33.191406 26.566406 33.160156 26.523438 33.128906 26.484375 C 33.898438 25.988281 34.671875 25.5 35.472656 25.054688 C 35.160156 25.355469 34.785156 25.640625 34.40625 25.84375 C 33.996094 26.066406 33.472656 26.195312 33.214844 26.613281 C 33.148438 26.601562 33.558594 26.058594 33.214844 26.613281 " fill-opacity="1" fill-rule="evenodd"/><path fill="#000000" d="M 33.257812 24.015625 C 33.113281 24.035156 33.488281 23.472656 33.515625 23.4375 C 33.613281 23.296875 34.21875 22.308594 34.207031 22.28125 C 34.230469 22.320312 34.089844 22.398438 34.210938 22.410156 C 34.382812 21.652344 35.007812 21.128906 35.246094 20.402344 C 35.332031 20.132812 35.304688 20.21875 35.519531 20.117188 C 35.617188 19.882812 35.722656 19.648438 35.828125 19.417969 C 36.027344 18.980469 36.242188 18.546875 36.472656 18.121094 C 36.324219 18.730469 35.925781 19.25 35.78125 19.8125 C 35.691406 20.140625 35.507812 20.421875 35.324219 20.703125 C 35.085938 21.066406 35.019531 21.496094 34.777344 21.847656 C 34.746094 21.828125 34.730469 21.800781 34.734375 21.761719 C 34.492188 22 34.503906 22.484375 34.125 22.585938 C 34.09375 23.171875 33.558594 23.558594 33.257812 24.015625 C 33.132812 24.03125 33.550781 23.566406 33.257812 24.015625 " fill-opacity="1" fill-rule="evenodd"/><path fill="#000000" d="M 33.429688 24.449219 C 33.550781 24.277344 33.667969 24.09375 33.738281 23.894531 C 33.824219 23.628906 33.945312 23.777344 33.953125 23.753906 C 33.921875 23.957031 33.695312 24.472656 33.429688 24.449219 C 33.589844 24.222656 33.660156 24.46875 33.429688 24.449219 " fill-opacity="1" fill-rule="evenodd"/><path fill="#000000" d="M 34.429688 18.902344 C 34.371094 18.882812 34.433594 18.621094 34.601562 18.683594 C 34.601562 18.8125 34.472656 18.8125 34.429688 18.902344 " fill-opacity="1" fill-rule="evenodd"/><path fill="#000000" d="M 36.125 29.902344 C 36.464844 29.65625 36.9375 29.664062 37.339844 29.652344 C 37.914062 29.632812 38.445312 29.539062 39.007812 29.410156 C 39.386719 29.320312 40.15625 29.351562 40.40625 29.148438 C 40.519531 29.0625 40.695312 29.066406 40.816406 29.125 C 41.027344 29.128906 41.082031 28.890625 41.296875 28.910156 C 41.292969 29.460938 38.996094 29.648438 38.574219 29.703125 C 38.109375 29.765625 37.636719 29.804688 37.167969 29.773438 C 36.949219 30.070312 36.394531 29.695312 36.125 29.902344 C 36.582031 29.570312 36.335938 29.742188 36.125 29.902344 " fill-opacity="1" fill-rule="evenodd"/><path fill="#000000" d="M 37.210938 26.828125 C 37.296875 26.773438 37.535156 26.839844 37.558594 26.699219 C 37.523438 26.675781 37.496094 26.648438 37.472656 26.613281 C 37.601562 26.816406 37.226562 26.617188 37.210938 26.828125 C 37.304688 26.765625 37.226562 26.574219 37.210938 26.828125 Z M 39.386719 26.09375 C 38.878906 26.296875 38.351562 26.425781 37.835938 26.59375 C 37.613281 26.664062 37.621094 26.636719 37.601562 26.828125 C 37.324219 26.886719 37.03125 26.972656 36.820312 27.175781 C 36.71875 27.0625 37.378906 26.757812 36.992188 26.785156 C 37.269531 26.558594 39.199219 25.707031 39.386719 26.09375 C 38.835938 26.316406 39.167969 25.640625 39.386719 26.09375 " fill-opacity="1" fill-rule="evenodd"/><path fill="#000000" d="M 42.945312 22.800781 C 44.117188 22.097656 45.671875 21.667969 46.554688 20.417969 C 46.828125 20.894531 45.253906 21.378906 45.597656 21.71875 C 45.488281 21.816406 45.410156 21.640625 45.292969 21.675781 C 45.050781 21.859375 44.796875 22.035156 44.539062 22.203125 C 44.039062 22.519531 43.511719 22.832031 42.945312 23.015625 C 42.925781 22.949219 43.070312 22.835938 42.945312 22.800781 C 43.328125 22.574219 43.074219 22.835938 42.945312 22.800781 " fill-opacity="1" fill-rule="evenodd"/><path fill="#000000" d="M 39.472656 23.753906 C 39.328125 23.683594 40.007812 23.457031 40.003906 23.460938 C 40.0625 23.371094 40.289062 23.257812 40.253906 23.492188 C 39.996094 23.605469 39.742188 23.6875 39.472656 23.753906 C 39.367188 23.699219 39.75 23.6875 39.472656 23.753906 " fill-opacity="1" fill-rule="evenodd"/><path fill="#000000" d="M 39.472656 13.011719 C 39.484375 12.699219 40.0625 13.007812 40.035156 12.578125 C 40.109375 12.832031 39.695312 13.035156 39.472656 13.011719 " fill-opacity="1" fill-rule="evenodd"/><path fill="#000000" d="M 40.515625 21.933594 C 40.441406 21.902344 40.59375 21.730469 40.730469 21.761719 C 40.722656 21.878906 40.570312 21.859375 40.515625 21.933594 " fill-opacity="1" fill-rule="evenodd"/><path fill="#000000" d="M 42.601562 16.652344 C 42.929688 16.152344 43.414062 15.792969 43.859375 15.402344 C 44.140625 15.15625 44.625 14.359375 44.902344 14.441406 C 45.050781 14.273438 45.042969 14 45.035156 13.792969 C 45.597656 13.753906 44.652344 14.964844 44.5 15.117188 C 44.261719 15.359375 44 15.570312 43.734375 15.78125 C 43.632812 15.863281 43.527344 15.949219 43.421875 16.039062 C 43.242188 16.1875 43.121094 16.492188 43.121094 16.085938 C 43.054688 16.386719 42.917969 16.585938 42.601562 16.652344 C 43.179688 15.769531 42.96875 16.578125 42.601562 16.652344 " fill-opacity="1" fill-rule="evenodd"/><path fill="#000000" d="M 22.566406 30.292969 C 22.457031 29.960938 22.851562 29.636719 23.085938 29.476562 C 23.40625 29.265625 23.597656 29.035156 23.847656 28.746094 C 23.96875 28.609375 24.125 28.511719 24.304688 28.476562 C 24.457031 28.265625 24.269531 28.335938 24.539062 28.113281 C 24.972656 27.765625 25.308594 27.3125 25.738281 26.960938 C 25.722656 27.78125 24.527344 28.144531 24.21875 28.820312 C 24.148438 28.773438 23.578125 29.222656 23.492188 29.328125 C 23.195312 29.683594 22.902344 29.957031 22.566406 30.292969 C 22.441406 29.914062 22.769531 30.089844 22.566406 30.292969 " fill-opacity="1" fill-rule="evenodd"/><path fill="#000000" d="M 23.261719 24.75 C 23.753906 24.527344 25.851562 21.738281 26.128906 22.019531 C 26.136719 22.207031 25.953125 22.269531 25.957031 22.453125 C 26.113281 22.511719 26.632812 21.945312 26.734375 21.84375 C 26.871094 21.703125 28.140625 20.609375 28.199219 20.71875 C 28.195312 20.761719 28.183594 20.808594 28.171875 20.851562 C 28.363281 20.695312 28.675781 20.765625 28.824219 20.765625 C 28.871094 20.707031 28.859375 20.679688 28.78125 20.679688 C 29.195312 20.546875 29.554688 20.199219 29.996094 20.160156 C 30.066406 20.300781 29.667969 20.3125 29.910156 20.375 C 29.71875 20.441406 29.496094 20.496094 29.433594 20.722656 C 29.113281 20.722656 28.78125 20.90625 28.503906 21.042969 C 27.800781 21.398438 27.230469 21.769531 26.65625 22.300781 C 26.410156 22.527344 26.089844 22.640625 25.851562 22.871094 C 25.613281 23.109375 25.410156 22.949219 25.15625 23.207031 C 24.558594 23.824219 24.027344 24.527344 23.304688 25.011719 C 23.257812 24.929688 23.242188 24.84375 23.261719 24.75 C 23.789062 24.511719 23.257812 24.859375 23.261719 24.75 " fill-opacity="1" fill-rule="evenodd"/><path fill="#000000" d="M 35.863281 34.363281 C 35.695312 34.382812 35.503906 34.382812 35.472656 34.539062 C 35.546875 34.425781 35.816406 34.503906 35.863281 34.363281 Z M 32.519531 34.886719 C 32.726562 34.980469 34.207031 34.75 34.261719 34.527344 C 34.257812 34.539062 33.316406 34.652344 33.28125 34.660156 C 32.613281 34.8125 31.925781 34.859375 31.257812 35.015625 C 31.652344 35.011719 32.160156 35.09375 32.519531 34.886719 C 32.863281 35.050781 32.226562 35.058594 32.519531 34.886719 Z M 31.039062 34.496094 C 31.125 34.371094 31.316406 34.363281 31.449219 34.355469 C 31.699219 34.339844 32.039062 34.207031 32.039062 34.496094 C 32.253906 34.300781 32.710938 34.324219 33.015625 34.308594 C 33.449219 34.285156 33.878906 34.3125 34.3125 34.238281 C 34.792969 34.15625 35.265625 34.015625 35.726562 33.832031 C 35.929688 33.753906 36.125 33.667969 36.324219 33.582031 C 36.445312 33.523438 36.566406 33.46875 36.6875 33.414062 C 36.722656 33.460938 36.765625 33.488281 36.820312 33.5 C 36.804688 33.417969 36.816406 33.347656 36.863281 33.28125 C 35.753906 33.515625 34.671875 33.816406 33.554688 34 C 32.945312 34.101562 32.332031 34.148438 31.714844 34.167969 C 31.503906 34.171875 30.136719 34.078125 30.171875 34.277344 C 30.410156 34.363281 30.890625 34.234375 31.039062 34.496094 C 31.1875 34.292969 30.898438 34.246094 31.039062 34.496094 Z M 38.820312 31.375 C 38.433594 31.496094 38.058594 31.652344 37.6875 31.816406 C 37.355469 31.96875 36.832031 32.328125 36.464844 32.308594 C 35.738281 32.261719 35.007812 32.691406 34.285156 32.84375 C 33.882812 32.929688 33.496094 33.070312 33.105469 33.222656 C 32.726562 33.375 32.28125 33.28125 31.867188 33.433594 C 31.398438 33.605469 30.933594 33.679688 30.441406 33.722656 C 30.117188 33.75 29.898438 33.730469 29.867188 33.886719 C 29.546875 34.09375 29.109375 33.730469 28.867188 34.105469 C 30.6875 34.273438 32.667969 33.921875 34.457031 33.585938 C 35.304688 33.425781 36.152344 33.230469 36.957031 32.914062 C 37.207031 32.816406 37.648438 32.472656 37.914062 32.558594 C 38.253906 32.671875 38.410156 32.058594 38.820312 32.113281 C 38.640625 31.929688 39.144531 31.835938 38.992188 31.679688 C 38.929688 31.777344 38.871094 31.777344 38.820312 31.679688 C 39.066406 31.398438 39.519531 31.332031 39.644531 30.945312 C 39.378906 31.039062 39 31.140625 38.820312 31.375 C 37.953125 31.648438 38.949219 31.207031 38.820312 31.375 Z M 27.605469 33.628906 C 27.824219 33.503906 28.167969 33.601562 28.40625 33.613281 C 28.523438 33.621094 28.644531 33.617188 28.757812 33.59375 C 29.050781 33.535156 28.824219 33.472656 28.867188 33.28125 C 29.210938 33.339844 29.554688 33.359375 29.894531 33.417969 C 30.136719 33.460938 30.566406 33.054688 30.78125 33.371094 C 31.089844 33.171875 31.472656 33.117188 31.828125 33.070312 C 32.039062 33.042969 33.042969 32.796875 33.039062 32.976562 C 33.101562 32.9375 33.128906 32.882812 33.128906 32.808594 C 33.378906 32.765625 33.628906 32.71875 33.878906 32.667969 C 34.300781 32.582031 34.722656 32.484375 35.140625 32.375 C 36.0625 32.128906 36.96875 31.828125 37.84375 31.453125 C 38.625 31.113281 39.386719 30.496094 40.183594 30.253906 C 40.511719 30.15625 40.78125 29.925781 41.066406 29.742188 C 41.488281 29.46875 41.863281 29.351562 42.164062 28.910156 C 42.070312 28.761719 41.964844 28.964844 41.859375 28.953125 C 41.824219 28.753906 42.273438 28.546875 42.375 28.675781 C 42.546875 28.894531 42.34375 29.269531 42.078125 29.210938 C 42.058594 29.464844 42.257812 29.269531 41.921875 29.511719 C 41.667969 29.691406 41.457031 29.925781 41.214844 30.121094 C 40.828125 30.4375 40.40625 30.773438 39.949219 30.988281 C 39.691406 31.304688 39.59375 31.792969 39.167969 31.941406 C 39.132812 32.140625 38.957031 32.21875 38.777344 32.242188 C 38.75 32.472656 38.574219 32.585938 38.382812 32.675781 L 38.382812 32.503906 C 38.5625 32.582031 37.664062 33.273438 37.589844 33.40625 C 37.4375 33.671875 37.171875 33.691406 36.886719 33.835938 C 36.5625 34.003906 36.34375 34.304688 36.015625 34.480469 C 34.878906 35.082031 33.527344 35.109375 32.304688 35.300781 C 31.578125 35.414062 30.867188 35.324219 30.140625 35.371094 C 29.414062 35.414062 28.683594 35.453125 27.953125 35.402344 C 27.730469 35.390625 27.464844 35.371094 27.300781 35.191406 C 27.121094 35.304688 26.808594 35.253906 26.613281 35.214844 C 26.363281 35.160156 26.269531 35.128906 26.03125 35.109375 C 25.808594 35.085938 25.539062 34.925781 25.566406 34.667969 C 25.855469 34.847656 26.996094 35.273438 27 34.753906 C 27.1875 34.753906 29.1875 34.890625 29.203125 34.941406 C 29.144531 34.769531 29.859375 34.894531 30.007812 34.890625 C 30.367188 34.875 31.101562 34.589844 31.039062 35.058594 C 31.308594 35.046875 31.097656 34.808594 31.257812 34.710938 C 31.296875 34.746094 31.3125 34.789062 31.300781 34.839844 C 31.394531 34.769531 31.492188 34.710938 31.605469 34.667969 C 31.601562 34.625 29.433594 34.46875 29.085938 34.382812 C 29.007812 34.363281 28.722656 34.253906 28.695312 34.453125 C 28.558594 34.34375 28.371094 34.316406 28.210938 34.285156 C 28.003906 34.242188 27.855469 34.269531 27.84375 34.027344 C 27.832031 33.742188 28.132812 33.957031 28.300781 33.933594 C 27.910156 33.792969 27.503906 33.710938 27.09375 33.652344 C 26.59375 33.578125 26.382812 33.445312 25.847656 33.324219 C 25.019531 33.132812 24.207031 32.851562 23.433594 32.503906 C 23.777344 32.351562 25.023438 33.222656 25.261719 32.9375 C 25.539062 33.078125 25.191406 33.148438 25.613281 33.140625 C 25.902344 33.132812 26.195312 33.171875 26.460938 33.300781 C 26.710938 33.421875 27.378906 33.53125 27.695312 33.5 C 27.683594 33.550781 27.652344 33.597656 27.605469 33.628906 C 27.871094 33.472656 27.609375 33.558594 27.605469 33.628906 " fill-opacity="1" fill-rule="evenodd"/><path fill="#000000" d="M 30.386719 26.046875 C 30.386719 25.589844 30.730469 25.183594 30.996094 24.835938 C 30.921875 25.132812 30.875 25.46875 30.5625 25.617188 C 30.589844 25.878906 30.953125 25.332031 30.953125 25.335938 C 31.007812 25.242188 31.082031 25.167969 31.175781 25.113281 C 31.40625 24.984375 31.40625 24.890625 31.535156 24.644531 C 31.949219 23.863281 32.492188 23.152344 32.785156 22.3125 C 32.777344 22.148438 32.839844 22.046875 32.976562 22.003906 C 33.199219 21.875 33.128906 21.800781 33.230469 21.53125 C 33.359375 21.160156 33.582031 20.828125 33.8125 20.515625 C 33.902344 20.398438 33.992188 20.277344 34.082031 20.160156 C 34.058594 19.976562 34.089844 19.792969 34.25 19.675781 C 34.492188 19.488281 34.507812 19.070312 34.777344 18.816406 C 35 19.050781 34.164062 20.273438 34.03125 20.5625 C 33.890625 20.878906 33.746094 21.191406 33.550781 21.480469 C 33.441406 21.644531 33.316406 21.800781 33.171875 21.933594 C 33.230469 22.082031 33.175781 22.324219 32.996094 22.367188 C 32.753906 23.214844 32.25 23.9375 31.773438 24.664062 C 31.546875 25.003906 31.351562 25.242188 31.074219 25.527344 C 30.933594 25.671875 30.804688 25.832031 30.648438 25.964844 C 30.523438 25.863281 30.417969 25.875 30.386719 26.046875 C 30.386719 25.617188 30.421875 25.855469 30.386719 26.046875 " fill-opacity="1" fill-rule="evenodd"/><path fill="#000000" d="M 34.515625 22.800781 C 34.316406 22.539062 34.792969 22.300781 34.777344 22.019531 C 34.957031 22.019531 35.449219 21.1875 35.523438 20.941406 C 35.652344 20.492188 35.960938 20.132812 36.136719 19.703125 C 36.1875 19.582031 36.378906 18.902344 36.558594 18.902344 C 36.558594 19.328125 36.394531 19.722656 36.199219 20.09375 C 35.988281 20.5 35.839844 21.035156 35.570312 21.382812 C 35.308594 21.710938 35.125 22.089844 34.859375 22.414062 C 34.671875 22.640625 34.335938 23.011719 34.253906 23.320312 C 34.0625 23.183594 34.40625 22.867188 34.515625 22.800781 C 34.304688 22.523438 34.375 22.886719 34.515625 22.800781 " fill-opacity="1" fill-rule="evenodd"/><path fill="#000000" d="M 39.339844 25.964844 C 39.484375 25.746094 41 25.167969 41.074219 25.328125 C 40.988281 25.148438 41.703125 24.921875 41.914062 24.796875 C 42.128906 24.675781 42.351562 24.570312 42.601562 24.578125 C 42.765625 24.378906 42.996094 24.277344 43.253906 24.273438 C 43.175781 24.484375 42.863281 24.648438 42.644531 24.621094 C 42.285156 24.832031 41.921875 25.03125 41.550781 25.210938 C 41.222656 25.367188 39.636719 26.234375 39.339844 25.964844 C 39.605469 25.566406 39.5 26.113281 39.339844 25.964844 " fill-opacity="1" fill-rule="evenodd"/><path fill="#000000" d="M 40.339844 23.449219 C 40.359375 23.117188 40.722656 22.894531 41.039062 22.929688 C 41.203125 22.777344 41.40625 22.671875 41.605469 22.570312 C 41.753906 22.496094 41.898438 22.414062 42.035156 22.324219 C 42.058594 22.371094 42.085938 22.414062 42.121094 22.453125 C 42.242188 22.429688 42.085938 22.347656 42.121094 22.28125 C 42.320312 22.175781 42.507812 22.0625 42.707031 21.953125 C 42.90625 21.84375 43.113281 21.742188 43.328125 21.664062 C 43.628906 21.550781 43.808594 21.335938 44.082031 21.167969 C 44.445312 20.949219 44.785156 20.640625 45.15625 20.472656 C 45.601562 20.265625 45.894531 19.84375 46.335938 19.636719 C 46.1875 19.851562 46.007812 20.042969 45.773438 20.160156 C 46.054688 20.5 45.84375 21.144531 45.335938 20.980469 C 45.335938 20.71875 45.644531 20.65625 45.644531 20.375 C 45.375 20.410156 45.066406 20.761719 44.804688 20.957031 C 44.199219 21.40625 43.546875 21.792969 42.886719 22.160156 C 42.667969 22.28125 41.089844 23.152344 41.078125 23.015625 C 40.929688 23.277344 40.59375 23.335938 40.339844 23.449219 C 40.359375 23.089844 40.609375 23.328125 40.339844 23.449219 " fill-opacity="1" fill-rule="evenodd"/><path fill="#000000" d="M 41.859375 23.40625 C 41.886719 23.367188 41.886719 23.324219 41.859375 23.277344 C 41.957031 23.226562 42.105469 23.292969 42.1875 23.210938 C 42.277344 23.121094 42.730469 22.882812 42.945312 22.84375 C 42.847656 23.394531 41.597656 23.671875 41.128906 23.863281 C 40.421875 24.152344 39.699219 24.425781 38.949219 24.578125 C 39.054688 24.246094 39.777344 24.082031 40.0625 24.027344 C 40.445312 23.957031 40.78125 23.753906 41.136719 23.617188 C 41.335938 23.542969 41.640625 23.304688 41.859375 23.40625 C 41.925781 23.386719 41.648438 23.308594 41.859375 23.40625 " fill-opacity="1" fill-rule="evenodd"/><path fill="#000000" d="M 39.472656 25.183594 C 40.097656 24.851562 40.714844 24.519531 41.289062 24.3125 C 41.691406 24.167969 42.070312 23.964844 42.4375 23.75 C 42.582031 23.664062 42.71875 23.578125 42.859375 23.492188 C 42.949219 23.5 42.890625 23.640625 42.992188 23.625 C 43.007812 23.617188 43.132812 23.421875 43.226562 23.371094 C 43.347656 23.308594 43.441406 23.21875 43.511719 23.105469 C 43.714844 23.0625 43.90625 22.984375 44.082031 22.882812 C 44.5625 22.605469 44.933594 22.121094 45.46875 21.933594 C 44.691406 22.796875 43.6875 23.410156 42.640625 23.890625 C 42.148438 24.117188 41.691406 24.398438 41.179688 24.597656 C 40.984375 24.675781 39.933594 25.164062 39.90625 25.054688 C 39.816406 25.171875 39.617188 25.273438 39.472656 25.183594 C 39.996094 24.90625 39.59375 25.261719 39.472656 25.183594 " fill-opacity="1" fill-rule="evenodd"/></svg>